<?xml version="1.0" encoding="UTF-8"?>
<svg viewBox="0 0 566 304" version="1.1" xmlns="http://www.w3.org/2000/svg" xmlns:xlink="http://www.w3.org/1999/xlink">
    <!-- Generator: Sketch 46.2 (44496) - http://www.bohemiancoding.com/sketch -->
    <title>Network Header Image</title>
    <desc>Created with Sketch.</desc>
    <defs>
        <path d="M35.5034525,35.3779859 L46.7181522,46.8137811 C47.6925049,47.7203096 49.1852781,47.7933366 50.244877,46.9865988 L53.336499,44.6336773 C54.5245459,43.7294427 54.754055,42.0444695 53.8506765,40.8599796 L35.2839724,16.5129386 L38.1348992,14.6857348 C38.6224613,14.3733629 38.9395309,13.8954376 39.0629644,13.3727786 C39.6789744,13.4393058 40.3204426,13.3062514 40.8785932,12.9487633 L42.9931623,11.5933673 C43.6863182,11.149088 44.1117779,10.4459644 44.231354,9.69198955 C44.9503538,9.90686474 45.7565285,9.82198522 46.4330981,9.38841144 L48.090192,8.32665273 C49.3125688,7.54323768 49.6658971,5.9110274 48.8755373,4.699009 L46.7586538,1.45370545 C45.968294,0.242451729 44.321229,-0.108154226 43.0988522,0.675260826 L41.442144,1.73740188 C40.7659601,2.17059331 40.3567011,2.86454076 40.2591116,3.60322201 C39.5165823,3.40172873 38.6949784,3.49769612 38.0022082,3.94197542 L35.8872533,5.2973714 C35.3495464,5.64224225 34.9734601,6.14349024 34.7748094,6.70208926 C34.223602,6.57553466 33.6230211,6.66003184 33.1130867,6.9869327 L29.4069976,9.36202997 C29.3211674,9.65914958 14.5111442,19.1516405 14.2485995,19.0769119 L10.9972855,21.1606659 C10.290629,21.6137391 9.94115806,22.4128301 10.0240899,23.192804 C9.28194634,22.9916931 8.46072822,23.0876605 7.76757229,23.5319398 L5.65300314,24.8873358 C5.09870983,25.2425298 4.71490898,25.7636595 4.52204422,26.3432872 C3.97160822,26.3058179 3.40574303,26.4339018 2.90969488,26.7520089 L1.25260092,27.8137676 C0.0302241152,28.5971826 -0.323104113,30.2293929 0.467255646,31.441029 L2.58413918,34.6863325 C3.37449894,35.8979686 5.02156393,36.2485746 6.24394074,35.4651595 L7.90064897,34.4030184 C8.44182747,34.0566182 8.81174207,33.5431354 8.98840618,32.9738308 C9.55504283,33.0025063 10.1340228,32.8656285 10.6439572,32.5387277 L12.7585264,31.1833317 C13.5257424,30.6916422 13.9658597,29.883375 14.0241049,29.0399326 C14.6582442,29.2961005 15.4042451,29.2540431 16.0190979,28.8598504 L18.02682,27.5728933 L32.9229221,54.5565523 C33.6419219,55.858803 35.2862868,56.3428456 36.6054817,55.6401044 L40.0392458,53.8113712 C41.2161065,53.1843333 41.761528,51.8048499 41.3275823,50.5523034 L35.5034525,35.3779859 Z" id="path-1"/>
        <path d="M21.674071,16.4296827 C21.674071,22.0064803 17.0399351,26.5273083 11.323166,26.5273083 C5.60659423,26.5273083 0.972458385,22.0064803 0.972458385,16.4296827 C0.972458385,10.8526927 5.60659423,6.33186473 11.323166,6.33186473 C17.0399351,6.33186473 21.674071,10.8526927 21.674071,16.4296827" id="path-3"/>
        <filter x="-2.4%" y="-2.5%" width="104.8%" height="109.9%" filterUnits="objectBoundingBox" id="filter-4">
            <feOffset dx="0" dy="1" in="SourceAlpha" result="shadowOffsetOuter1"/>
            <feColorMatrix values="0 0 0 0 0.737254902   0 0 0 0 0.694117647   0 0 0 0 0.6  0 0 0 0.203408062 0" type="matrix" in="shadowOffsetOuter1"/>
        </filter>
        <path d="M17.8428029,7.25837378 C17.8428029,11.5705866 13.8496064,15.0664293 8.9237041,15.0664293 C3.99780176,15.0664293 0.00460531388,11.5705866 0.00460531388,7.25837378 C0.00460531388,2.26893164 0.00460531388,0.185474854 8.9237041,0.185474854 C17.8428029,0.185474854 17.8428029,2.26893164 17.8428029,7.25837378" id="path-5"/>
        <polygon id="path-7" points="0 297.219895 473.479928 297.219895 473.479928 0.616282723 0 0.616282723"/>
        <polygon id="path-9" points="0.443545305 12.0221937 45.291598 12.0221937 45.291598 0.127937173 0.443545305 0.127937173"/>
        <path d="M0.307670511,4.65332461 C0.307670511,7.04200524 2.24505766,8.97822513 4.63692257,8.97822513 C7.02800659,8.97822513 8.96617463,7.04200524 8.96617463,4.65332461 C8.96617463,2.26464398 7.02800659,0.327643979 4.63692257,0.327643979 C2.24505766,0.327643979 0.307670511,2.26464398 0.307670511,4.65332461 Z" id="path-11"/>
        <path d="M45.0207168,20.2978669 L13.6577039,38.9582945 C12.2236765,39.8307425 10.3546116,39.3837623 9.47216392,37.9563736 L7.17524559,34.2426932 C6.38818687,32.9698752 6.63923146,31.3130208 7.76873257,30.3298237 L21.8990708,19.1230499 L5.41992903,22.0447548 C3.96235375,22.3861648 2.47244999,21.6216773 1.90051533,20.2385086 L0.232605387,16.2025403 C-0.408775631,14.651256 0.321608478,12.8728963 1.86778773,12.2191578 L40.0808457,0.246303074 C40.0808457,0.246303074 48.8873623,2.99670533 48.8538365,3.28035052 C48.8207098,3.56399571 45.0207168,20.2978669 45.0207168,20.2978669" id="path-13"/>
        <path d="M3.79111216,12.721099 L16.2032517,9.33050322 C16.7225029,9.28429136 17.176299,9.03450831 17.4939961,8.66839885 C17.9561736,8.978337 18.5225206,9.1400785 19.1164067,9.08709422 L21.369023,8.88631166 C22.1077886,8.82057928 22.7419855,8.43574606 23.1542734,7.88279728 C23.6360076,8.35527369 24.31291,8.62378051 25.0337153,8.55964164 L26.7986107,8.4022823 C28.1005304,8.28635428 29.0687882,7.12906596 28.9502504,5.83035342 L28.6321542,2.35211442 C28.5132173,1.05340188 27.3505895,0.0857415317 26.0486699,0.201669553 L24.2837745,0.359427272 C23.5633683,0.423566142 22.9459343,0.80760261 22.5575935,1.35736436 C22.0515131,0.886083091 21.3574487,0.619966535 20.6190822,0.685698918 L18.366865,0.886481469 C17.793733,0.937872242 17.2836614,1.18128125 16.8909303,1.54539881 C16.5049842,1.21394825 15.9921188,1.03069433 15.4489206,1.07889808 L3.39279339,0.0220010391 C3.39279339,0.0220010391 0.470312665,1.52915473 0.433973239,7.28956553 C0.397633814,13.0499763 3.79111216,12.721099 3.79111216,12.721099 Z" id="path-15"/>
        <path d="M1.39084443,0.20635998 C3.20029787,2.31247456 4.15739157,5.13732354 3.80997088,8.11018092 C3.48209561,10.9161847 2.05381885,13.3266204 0.00574897235,14.9621857 L0.00574897234,0.20635998 L1.39084443,0.20635998 L1.39084443,0.20635998 Z" id="path-17"/>
        <path d="M7.38657804,8.3482915 C6.88887914,12.6045629 4.85857097,15.8652875 2.85061334,15.6314395 C0.843054838,15.3975916 -0.381036999,11.7580095 0.116661899,7.50173808 C0.61396168,3.24506831 2.64466897,-0.0156562585 4.65222748,0.218191674 C6.65978599,0.452039606 7.88427694,4.09162173 7.38657804,8.3482915" id="path-19"/>
        <path d="M1.26341629,14.6340945 C-0.12673093,13.324494 -0.180198131,11.1243651 1.15648189,9.76238061 L9.71123399,1.0666333 C11.047914,-0.295351221 13.2935364,-0.347735241 14.6836837,0.961865258 L22.0086902,7.87655589 C23.3988374,9.18615639 23.4523046,11.3862852 22.1156246,12.7482698 L13.5608724,21.4440171 C12.1707252,22.8060016 9.97857,22.8583856 8.58842278,21.5487851 L1.26341629,14.6340945 Z" id="path-21"/>
        <ellipse id="path-23" cx="4.9964418" cy="5.21144352" rx="3.84951759" ry="2.98579539"/>
    </defs>
    <g id="Product-Pages" stroke="none" stroke-width="1" fill="none" fill-rule="evenodd">
        <g id="Postman-Publishers---Directory" transform="translate(-820.000000, -154.000000)">
            <g id="Network-Header-Image" transform="translate(814.000000, 87.000000)">
                <g id="Group-2" transform="translate(34.500000, 152.000000) rotate(13.000000) translate(-34.500000, -152.000000) translate(7.000000, 118.000000)">
                    <g id="body" transform="translate(0.597826, 11.929825)">
                        <mask id="mask-2" fill="white">
                            <use xlink:href="#path-1"/>
                        </mask>
                        <use id="Mask" fill="#E8E0CB" xlink:href="#path-1"/>
                        <path d="M52.2480089,38.3090441 L31.1088748,51.8572687 L30.6128266,51.0964118 L51.7519608,37.5485694 L52.2480089,38.3090441 Z M49.877894,34.8843847 L28.7387598,48.4326094 L28.2427117,47.6717524 L49.3818458,34.1239101 L49.877894,34.8843847 Z M47.5533337,31.2506618 L26.4141995,44.7988865 L25.9181514,44.0380295 L47.0568998,30.4901872 L47.5533337,31.2506618 Z M45.5821402,27.255895 L24.443006,40.8041197 L23.9469579,40.0432627 L45.086092,26.4954204 L45.5821402,27.255895 Z M45.0871721,10.4499025 L44.3199561,10.941592 L39.1014216,2.94227052 L39.8690233,2.45058104 L45.0871721,10.4499025 Z M39.9261499,13.9374568 L39.1585481,14.4291463 L33.9403994,6.42982481 L34.7080011,5.93813532 L39.9261499,13.9374568 Z M14.9863071,29.9214561 L14.2190912,30.4131456 L9.00055666,22.4138241 L9.76815838,21.9217523 L14.9863071,29.9214561 Z M9.56387603,33.2165021 L8.79666004,33.708574 L3.57851128,25.7092525 L4.34611299,25.2171807 L9.56387603,33.2165021 Z" id="Combined-Shape" fill="#BCB199" mask="url(#mask-2)"/>
                        <path d="M33.3160027,19.8185981 L30.0627601,21.9034991 C29.8656523,22.0300537 29.6018133,21.9738497 29.4741368,21.7780915 L27.3707538,18.5538167 C27.2430774,18.3580585 27.2993939,18.0969202 27.4968874,17.9703656 L30.7505158,15.8854645 C30.9476235,15.7589099 31.2110768,15.8147316 31.3387533,16.0104898 L33.4421363,19.2351469 C33.5698127,19.4309051 33.5134962,19.6920435 33.3160027,19.8185981" id="Fill-73" fill="#F99D78" mask="url(#mask-2)"/>
                    </g>
                    <g id="Head" transform="translate(16.664124, 17.341186) rotate(-31.000000) translate(-16.664124, -17.341186) translate(5.305429, 3.920133)">
                        <path d="M1.70481401,19.6417588 L0.870547245,19.6417588 C0.614092578,19.6417588 0.39748702,19.4556603 0.365134278,19.2074006 L0.114203249,17.2809825 C0.0281922991,16.6222283 0.554516186,16.0392992 1.23530469,16.0392992 L1.70481401,19.6417588 Z" id="Left-Ear" fill="#BCB199"/>
                        <path d="M20.9416167,19.6417588 L21.7758835,19.6417588 C22.0323381,19.6417588 22.2489437,19.4556603 22.2812964,19.2074006 L22.5322275,17.2809825 C22.6182384,16.6222283 22.0919145,16.0392992 21.411126,16.0392992 L20.9416167,19.6417588 Z" id="Right-Ear" fill="#BCB199"/>
                        <g id="Antenna" transform="translate(9.920079, 0.000000)">
                            <polygon id="Fill-28" fill="#E7DFCA" points="1.17121679 8.61908253 1.67939158 8.61908253 1.67939158 1.35388126 1.17121679 1.35388126"/>
                            <path d="M2.84921941,1.52183182 C2.84921941,2.28893497 2.21183092,2.91093131 1.42530418,2.91093131 C0.63897472,2.91093131 0.0013889617,2.28893497 0.0013889617,1.52183182 C0.0013889617,0.75492111 0.63897472,0.132924774 1.42530418,0.132924774 C2.21183092,0.132924774 2.84921941,0.75492111 2.84921941,1.52183182" id="Fill-30" fill="#F69D79"/>
                        </g>
                        <g>
                            <use fill="black" fill-opacity="1" filter="url(#filter-4)" xlink:href="#path-3"/>
                            <use fill="#E8E0CB" fill-rule="evenodd" xlink:href="#path-3"/>
                        </g>
                        <g id="Shield" transform="translate(2.399482, 10.097471)">
                            <mask id="mask-6" fill="white">
                                <use xlink:href="#path-5"/>
                            </mask>
                            <use id="Mask" fill="#A7B6BA" xlink:href="#path-5"/>
                            <polygon id="Fill-15" fill-opacity="0.25" fill="#FEFEFE" mask="url(#mask-6)" points="2.50985178 13.6872024 1.61226044 12.4942088 17.1224415 1.39276743 18.0200328 2.58576102"/>
                            <polygon id="Fill-18" fill-opacity="0.25" fill="#FEFEFE" mask="url(#mask-6)" points="0.72516402 11.3873941 -0.172427316 10.1944005 15.3375564 -0.907040926 16.2349505 0.285952666"/>
                        </g>
                    </g>
                </g>
                <path d="M62.9734753,161.065999 C62.9734753,189.951741 72.4739595,248.566241 150.473717,248.566241" id="Path-3" stroke="#FFFFFF" stroke-width="2" stroke-linecap="round" stroke-linejoin="round" stroke-dasharray="5,10" transform="translate(106.723596, 204.816120) rotate(-29.000000) translate(-106.723596, -204.816120) "/>
                <g id="Large-Satellite" transform="translate(326.888988, 208.554046) rotate(-376.000000) translate(-326.888988, -208.554046) translate(89.888988, 59.554046)">
                    <g id="Page-1">
                        <g id="Group-28" transform="translate(0.000000, 0.163822)">
                            <path d="M223.85263,32.9165183 C223.658188,32.9165183 223.464528,32.8447487 223.313035,32.7004293 C223.00146,32.4024293 222.990528,31.908623 223.288047,31.5973613 L238.390452,6.45458639 C238.688752,6.14332461 239.183055,6.13240314 239.49463,6.43040314 C239.806205,6.72762304 239.817137,7.22142932 239.518838,7.5326911 L224.417213,32.6746859 C224.263378,32.8353874 224.058004,32.9165183 223.85263,32.9165183 Z" id="Fill-1" fill="#473F54"/>
                            <path d="M255.567525,32.9165183 C255.362151,32.9165183 255.156777,32.8353874 255.002942,32.6746859 L239.901317,7.5326911 C239.603017,7.22142932 239.61395,6.72762304 239.925525,6.43040314 C240.2371,6.13240314 240.731403,6.14332461 241.029703,6.45458639 L256.132108,31.5973613 C256.429627,31.908623 256.418695,32.4024293 256.10712,32.7004293 C255.956408,32.8447487 255.761966,32.9165183 255.567525,32.9165183" id="Fill-3" fill="#473F54"/>
                            <mask id="mask-8" fill="white">
                                <use xlink:href="#path-7"/>
                            </mask>
                            <g id="Clip-6"/>
                            <polygon id="Fill-5" fill="#625872" mask="url(#mask-8)" points="217.53086 79.8913037 262.378913 79.8913037 262.378913 67.9970471 217.53086 67.9970471"/>
                            <polygon id="Fill-7" fill="#325065" mask="url(#mask-8)" points="217.53086 79.8913037 262.378913 79.8913037 262.378913 67.9970471 217.53086 67.9970471"/>
                            <g id="Group-10" mask="url(#mask-8)">
                                <g transform="translate(217.087315, 67.869110)">
                                    <mask id="mask-10" fill="white">
                                        <use xlink:href="#path-9"/>
                                    </mask>
                                    <g id="Clip-9" stroke="none" fill="none"/>
                                    <path d="M-3.37976837,3.47669267 C-3.37976837,3.47669267 45.2915199,4.80833141 45.2915199,14.2031325 C45.2915199,21.6141272 47.6997835,14.2031325 47.6997835,14.2031325 L47.6997835,-1.39896178 L-3.37976837,3.47669267 Z" id="Fill-8" stroke="none" fill="#223C4E" fill-rule="evenodd" mask="url(#mask-10)"/>
                                </g>
                            </g>
                            <polygon id="Fill-11" fill="#473F54" mask="url(#mask-8)" points="83.4528929 163.885958 395.78141 163.885958 395.78141 156.988272 83.4528929 156.988272"/>
                            <path d="M239.634409,262.178138 C249.320564,262.178138 257.172409,270.022871 257.172409,279.69929 C257.172409,289.375708 249.320564,297.219661 239.634409,297.219661 C229.948254,297.219661 222.096409,289.375708 222.096409,279.69929 C222.096409,270.022871 229.948254,262.178138 239.634409,262.178138" id="Fill-12" fill="#8FA4AA" mask="url(#mask-8)"/>
                            <polygon id="Fill-13" fill="#625872" mask="url(#mask-8)" points="223.990379 166.383853 255.243924 166.383853 255.243924 154.489597 223.990379 154.489597"/>
                            <polygon id="Fill-14" fill="#8FA4AA" mask="url(#mask-8)" points="270.693435 254.481469 270.693435 174.388118 262.680727 166.383463 216.552796 166.383463 208.540087 174.388118 208.540087 254.481469"/>
                            <polygon id="Fill-15" fill="#3D545E" opacity="0.2" mask="url(#mask-8)" points="262.680961 166.383775 246.17842 166.383775 246.17842 254.481781 270.693669 254.481781 270.693669 174.38843"/>
                            <polygon id="Fill-16" fill="#473F54" mask="url(#mask-8)" points="238.061229 29.6096545 241.308168 29.6096545 241.308168 4.01987958 238.061229 4.01987958"/>
                            <polygon id="Fill-17" fill="#8FA4AA" mask="url(#mask-8)" points="213.707624 154.489597 266.202929 154.489597 266.202929 79.3405497 213.707624 79.3405497"/>
                            <polygon id="Fill-18" fill="#473F54" mask="url(#mask-8)" points="238.061229 154.489597 241.308168 154.489597 241.308168 79.3405497 238.061229 79.3405497"/>
                            <polygon id="Fill-19" fill="#4E687A" mask="url(#mask-8)" points="213.707624 91.2348063 266.202929 91.2348063 266.202929 79.3405497 213.707624 79.3405497"/>
                            <path d="M252.943501,109.615868 C255.483735,109.615868 257.543722,107.558731 257.543722,105.020271 C257.543722,102.48259 255.483735,100.425454 252.943501,100.425454 C250.403268,100.425454 248.343281,102.48259 248.343281,105.020271 C248.343281,107.558731 250.403268,109.615868 252.943501,109.615868" id="Fill-20" fill="#625872" mask="url(#mask-8)"/>
                            <path d="M252.943501,122.591973 C255.483735,122.591973 257.543722,120.534057 257.543722,117.995596 C257.543722,115.457916 255.483735,113.40078 252.943501,113.40078 C250.403268,113.40078 248.343281,115.457916 248.343281,117.995596 C248.343281,120.534057 250.403268,122.591973 252.943501,122.591973" id="Fill-21" fill="#625872" mask="url(#mask-8)"/>
                            <polygon id="Fill-22" fill="#625872" mask="url(#mask-8)" points="228.148304 147.276515 228.148304 154.489363 213.707312 154.489363 213.707312 140.063666 220.927417 140.063666 220.927417 147.276515"/>
                            <polygon id="Fill-23" fill="#4E687A" mask="url(#mask-8)" points="226.155005 154.489597 266.202929 154.489597 266.202929 147.276749 226.155005 147.276749"/>
                            <polygon id="Fill-24" fill="#473F54" mask="url(#mask-8)" points="238.061229 182.60301 241.308168 182.60301 241.308168 166.383853 238.061229 166.383853"/>
                            <path d="M328.027444,29.6102005 C329.151925,29.6102005 330.064004,30.5705094 329.953118,31.6899597 C327.679948,54.5095827 288.195045,72.6782215 239.819714,72.6782215 C191.444383,72.6782215 151.960261,54.5095827 149.687092,31.6899597 C149.575424,30.5705094 150.486723,29.6102005 151.611985,29.6102005 L328.027444,29.6102005 Z" id="Fill-25" fill="#7D9199" mask="url(#mask-8)"/>
                            <path d="M319.904396,29.6102005 C319.904396,53.3955932 281.797763,72.6774414 234.791332,72.6774414 C189.156142,72.6774414 151.91005,54.5049021 149.774317,31.6813785 C149.669678,30.5658288 150.578633,29.6102005 151.700772,29.6102005 L319.904396,29.6102005 Z" id="Fill-26" fill="#8FA4AA" mask="url(#mask-8)"/>
                            <path d="M241.453179,3.0463089 C243.635766,4.0222199 244.612659,6.58018325 243.635766,8.76057592 C242.659654,10.9409686 240.098336,11.9176597 237.915749,10.9417487 C235.733163,9.9658377 234.755489,7.40709424 235.732382,5.22670157 C236.709275,3.0463089 239.270593,2.07039791 241.453179,3.0463089" id="Fill-27" fill="#F99D78" mask="url(#mask-8)"/>
                        </g>
                        <g id="Group-31" transform="translate(235.047776, 2.504136)">
                            <mask id="mask-12" fill="white">
                                <use xlink:href="#path-11"/>
                            </mask>
                            <g id="Clip-30"/>
                            <path d="M7.54893806,-1.72426545 C8.96625272,4.65387068 6.26047018,9.79398063 -1.31181647,8.9787712 C-9.4658659,8.1011534 13.7827799,23.8842319 13.7827799,23.8842319 L13.7827799,3.87376597 L7.54893806,-1.72426545 Z" id="Fill-29" fill="#ED8370" mask="url(#mask-12)"/>
                        </g>
                        <g id="Group-77" transform="translate(0.000000, 78.954398)">
                            <polygon id="Fill-32" fill="#282828" opacity="0.8" points="223.042379 164.364942 256.190362 164.364942 256.190362 113.544241 223.042379 113.544241"/>
                            <path d="M256.190597,164.364942 L256.190597,113.544241 C248.55662,105.449874 243.127875,101.24199 229.283483,97.4108953 L229.283483,148.230817 C241.106933,151.38322 248.10917,156.772963 256.190597,164.364942" id="Fill-34" fill="#4E687A"/>
                            <path d="M235.287275,120.167096 C236.81938,120.167096 238.060995,121.407462 238.060995,122.938028 C238.060995,124.468593 236.81938,125.70896 235.287275,125.70896 C233.75595,125.70896 232.513555,124.468593 232.513555,122.938028 C232.513555,121.407462 233.75595,120.167096 235.287275,120.167096" id="Fill-35" fill="#F99D78"/>
                            <path d="M249.087469,158.163734 C251.462935,160.035205 253.779834,162.100142 256.190441,164.364786 L256.190441,113.544865 C253.711897,110.915912 251.464497,108.699635 249.087469,106.770436 L249.087469,158.163734 Z" id="Fill-36" fill="#325065" opacity="0.428442029"/>
                            <polygon id="Fill-37" fill="#625872" points="203.492026 182.463372 275.740715 182.463372 275.740715 175.691283 203.492026 175.691283"/>
                            <polygon id="Fill-38" fill="#473F54" points="260.926224 182.462748 218.307611 182.462748 222.095706 189.234837 222.095706 200.858397 257.172487 200.858397 257.172487 189.234837 257.137347 189.234837"/>
                            <polygon id="Fill-39" fill="#625872" points="203.492026 168.997204 213.920807 168.997204 213.920807 157.945461 203.492026 157.945461"/>
                            <polygon id="Fill-40" fill="#766B8C" points="203.492026 163.470942 213.920807 163.470942 213.920807 157.945461 203.492026 157.945461"/>
                            <polygon id="Fill-41" fill="#625872" points="265.479044 168.997204 275.907825 168.997204 275.907825 157.945461 265.479044 157.945461"/>
                            <polygon id="Fill-42" fill="#766B8C" points="265.479044 163.470942 275.907825 163.470942 275.907825 157.945461 265.479044 157.945461"/>
                            <polygon id="Fill-43" fill="#625872" points="203.492026 140.553806 213.920807 140.553806 213.920807 129.502843 203.492026 129.502843"/>
                            <polygon id="Fill-44" fill="#766B8C" points="203.492026 135.028325 213.920807 135.028325 213.920807 129.502843 203.492026 129.502843"/>
                            <polygon id="Fill-45" fill="#625872" points="265.479044 140.553806 275.907825 140.553806 275.907825 129.502843 265.479044 129.502843"/>
                            <polygon id="Fill-46" fill="#766B8C" points="265.479044 135.028325 275.907825 135.028325 275.907825 129.502843 265.479044 129.502843"/>
                            <polygon id="Fill-47" fill="#625872" points="203.492026 114.073152 213.920807 114.073152 213.920807 103.022188 203.492026 103.022188"/>
                            <polygon id="Fill-48" fill="#766B8C" points="203.492026 108.54767 213.920807 108.54767 213.920807 103.022188 203.492026 103.022188"/>
                            <polygon id="Fill-49" fill="#625872" points="265.479044 114.073152 275.907825 114.073152 275.907825 103.022188 265.479044 103.022188"/>
                            <polygon id="Fill-50" fill="#766B8C" points="265.479044 108.54767 275.907825 108.54767 275.907825 103.022188 265.479044 103.022188"/>
                            <path d="M363.296324,11.1764042 C366.675233,11.1764042 369.414594,13.9130115 369.414594,17.2885246 L369.414594,146.004242 C369.414594,149.378975 366.675233,152.115582 363.296324,152.115582 L288.72605,152.115582 C285.347141,152.115582 282.608561,149.378975 282.608561,146.004242 L282.608561,17.2885246 C282.608561,13.9130115 285.347141,11.1764042 288.72605,11.1764042 L363.296324,11.1764042 Z" id="Fill-51" fill="#4E687A"/>
                            <polygon id="Fill-52" fill="#7D9199" points="324.059041 152.115738 327.963489 152.115738 327.963489 11.1773403 324.059041 11.1773403"/>
                            <polygon id="Fill-53" fill="#7D9199" points="282.608639 118.08367 369.414672 118.08367 369.414672 114.183147 282.608639 114.183147"/>
                            <polygon id="Fill-54" fill="#7D9199" points="282.608639 83.6615497 369.414672 83.6615497 369.414672 79.7610262 282.608639 79.7610262"/>
                            <polygon id="Fill-55" fill="#7D9199" points="282.608639 49.2394293 369.414672 49.2394293 369.414672 45.3389058 282.608639 45.3389058"/>
                            <path d="M455.538208,11.1764042 C458.916336,11.1764042 461.655697,13.9130115 461.655697,17.2885246 L461.655697,146.004242 C461.655697,149.378975 458.916336,152.115582 455.538208,152.115582 L380.967934,152.115582 C377.589025,152.115582 374.849664,149.378975 374.849664,146.004242 L374.849664,17.2885246 C374.849664,13.9130115 377.589025,11.1764042 380.967934,11.1764042 L455.538208,11.1764042 Z" id="Fill-56" fill="#4E687A"/>
                            <polygon id="Fill-57" fill="#7D9199" points="416.300847 152.115738 420.205295 152.115738 420.205295 11.1773403 416.300847 11.1773403"/>
                            <polygon id="Fill-58" fill="#7D9199" points="374.849664 118.08367 461.655697 118.08367 461.655697 114.183147 374.849664 114.183147"/>
                            <polygon id="Fill-59" fill="#7D9199" points="374.849664 83.6615497 461.655697 83.6615497 461.655697 79.7610262 374.849664 79.7610262"/>
                            <polygon id="Fill-60" fill="#7D9199" points="374.849664 49.2394293 461.655697 49.2394293 461.655697 45.3389058 374.849664 45.3389058"/>
                            <path d="M98.9381684,11.1764042 C102.317078,11.1764042 105.056439,13.9130115 105.056439,17.2885246 L105.056439,146.004242 C105.056439,149.378975 102.317078,152.115582 98.9381684,152.115582 L24.3678949,152.115582 C20.9889855,152.115582 18.2504056,149.378975 18.2504056,146.004242 L18.2504056,17.2885246 C18.2504056,13.9130115 20.9889855,11.1764042 24.3678949,11.1764042 L98.9381684,11.1764042 Z" id="Fill-61" fill="#4E687A"/>
                            <polygon id="Fill-62" fill="#7D9199" points="59.7013542 152.115738 63.6058023 152.115738 63.6058023 11.1773403 59.7013542 11.1773403"/>
                            <polygon id="Fill-63" fill="#7D9199" points="18.2501713 118.08367 105.056204 118.08367 105.056204 114.183147 18.2501713 114.183147"/>
                            <polygon id="Fill-64" fill="#7D9199" points="18.2501713 83.6615497 105.056204 83.6615497 105.056204 79.7610262 18.2501713 79.7610262"/>
                            <polygon id="Fill-65" fill="#7D9199" points="18.2501713 49.2394293 105.056204 49.2394293 105.056204 45.3389058 18.2501713 45.3389058"/>
                            <path d="M191.179584,11.1764042 C194.558493,11.1764042 197.297073,13.9130115 197.297073,17.2885246 L197.297073,146.004242 C197.297073,149.378975 194.558493,152.115582 191.179584,152.115582 L116.60931,152.115582 C113.230401,152.115582 110.49104,149.378975 110.49104,146.004242 L110.49104,17.2885246 C110.49104,13.9130115 113.230401,11.1764042 116.60931,11.1764042 L191.179584,11.1764042 Z" id="Fill-66" fill="#4E687A"/>
                            <polygon id="Fill-67" fill="#7D9199" points="151.942379 152.115738 155.846827 152.115738 155.846827 11.1773403 151.942379 11.1773403"/>
                            <polygon id="Fill-68" fill="#7D9199" points="110.491196 118.08367 197.297229 118.08367 197.297229 114.183147 110.491196 114.183147"/>
                            <polygon id="Fill-69" fill="#7D9199" points="110.491196 83.6615497 197.297229 83.6615497 197.297229 79.7610262 110.491196 79.7610262"/>
                            <polygon id="Fill-70" fill="#7D9199" points="110.491196 49.2394293 197.297229 49.2394293 197.297229 45.3389058 110.491196 45.3389058"/>
                            <polygon id="Fill-71" fill="#3D545E" opacity="0.2" points="246.178577 75.6990209 266.202929 75.6990209 266.202929 0.549973822 246.178577 0.549973822"/>
                            <polygon id="Fill-72" fill="#473F54" points="246.178577 87.5932775 255.243924 87.5932775 255.243924 75.6990209 246.178577 75.6990209"/>
                            <polygon id="Fill-73" fill="#473F54" opacity="0.2" points="275.741027 175.690893 246.178889 175.690893 246.178889 182.462982 260.925989 182.462982 275.741027 182.462982"/>
                            <polygon id="Fill-74" fill="#473F54" opacity="0.2" points="260.926224 182.462748 246.178342 182.462748 246.178342 200.909104 257.172487 200.909104 257.172487 189.234837"/>
                            <path d="M257.1728,200.908714 L246.178655,200.908714 C246.178655,200.908714 247.568638,215.949913 230.636609,215.949913 C230.636609,215.949913 234.069399,218.429085 239.6348,218.429085 C247.151643,218.429085 257.1728,212.935588 257.1728,200.908714" id="Fill-75" fill="#325065" opacity="0.2"/>
                            <polygon id="Fill-76" fill="#000000" points="0.000468533773 142.985159 0.000468533773 142.985159 0.000468533773 173.149468"/>
                        </g>
                        <g id="Group-86" transform="translate(17.960461, 107.818272)" fill="#473F54" opacity="0.2">
                            <path d="M351.454133,23.0272869 L264.6481,44.4325801 L264.6481,117.14068 C264.6481,120.515413 267.38668,123.25202 270.765589,123.25202 L345.335863,123.25202 C348.714772,123.25202 351.454133,120.515413 351.454133,117.14068 L351.454133,23.0272869" id="Fill-78"/>
                            <path d="M443.695236,0.281617801 L356.889203,21.686911 L356.889203,117.140524 C356.889203,120.515257 359.628563,123.251864 363.007473,123.251864 L437.577746,123.251864 C440.955875,123.251864 443.695236,120.515257 443.695236,117.140524 L443.695236,0.281617801" id="Fill-80"/>
                            <path d="M87.0958992,88.215567 L0.289866227,109.62086 L0.289866227,117.14029 C0.289866227,120.515023 3.02844613,123.25163 6.40735552,123.25163 L80.977629,123.25163 C84.3565384,123.25163 87.0958992,120.515023 87.0958992,117.14029 L87.0958992,88.215567" id="Fill-82"/>
                            <path d="M179.337002,65.4698979 L92.530969,86.8751911 L92.530969,117.140134 C92.530969,120.515647 95.2703298,123.251474 98.6484583,123.251474 L173.219513,123.251474 C176.597641,123.251474 179.337002,120.515647 179.337002,117.140134 L179.337002,65.4698979" id="Fill-84"/>
                        </g>
                    </g>
                </g>
                <g id="ic-spaceman-flying" transform="translate(421.500000, 240.000000) scale(-1, 1) translate(-421.500000, -240.000000) translate(368.000000, 188.000000)">
                    <g id="ic-spacemen-planet" transform="translate(53.423317, 52.076370) rotate(-29.000000) translate(-53.423317, -52.076370) translate(12.633262, 15.144552)">
                        <g id="ASTRONAUTS" transform="translate(40.672777, 36.758864) rotate(13.000000) translate(-40.672777, -36.758864) translate(5.794324, 7.213410)">
                            <g id="Group-15" transform="translate(0.000000, 1.733457)">
                                <g id="Combined-Shape" transform="translate(-0.000000, 17.458441)">
                                    <mask id="mask-14" fill="white">
                                        <use xlink:href="#path-13"/>
                                    </mask>
                                    <use id="Mask" fill="#E8E0CB" xlink:href="#path-13"/>
                                    <path d="M21.9356299,37.0694247 L21.0116741,37.5160065 L6.64825151,7.90058012 L7.57220736,7.4539983 L21.9356299,37.0694247 Z M27.9337198,34.8421725 L27.009764,35.2887543 L12.6463414,5.67292958 L13.5702973,5.22674614 L27.9337198,34.8421725 Z M33.5503736,31.1774129 L32.6264178,31.6235963 L18.2629952,2.00816996 L19.1869511,1.56158814 L33.5503736,31.1774129 Z" fill="#BCB199" mask="url(#mask-14)"/>
                                </g>
                                <path d="M60.8838614,17.5658697 C60.2233228,23.2184563 55.0966649,27.266376 49.4335938,26.6066619 C43.7705227,25.9473461 39.7150949,20.8301797 40.3760327,15.1779915 C41.0365713,9.52500661 46.1632291,5.47748533 51.8263002,6.13680105 C57.4893714,6.79651515 61.5444001,11.9136816 60.8838614,17.5658697" id="Fill-7" fill="#E8E0CB"/>
                                <g id="Fill-16" transform="translate(40.575372, 25.463944)">
                                    <mask id="mask-16" fill="white">
                                        <use xlink:href="#path-15"/>
                                    </mask>
                                    <use id="Mask" fill="#E8E0CB" xlink:href="#path-15"/>
                                    <path d="M23.4308615,8.90539397 L22.6050884,8.94682529 L22.1580774,0.0880919624 L22.9842495,0.0466606422 L23.4308615,8.90539397 Z M17.8352411,9.62936646 L17.0086698,9.66362697 L16.640684,0.801308236 L17.4668561,0.767047722 L17.8352411,9.62936646 Z" id="Combined-Shape" fill="#BCB199" mask="url(#mask-16)"/>
                                </g>
                                <path d="M52.9213196,9.79902798 C52.6762357,10.2651963 51.8997753,10.3409667 51.1869355,9.96788772 C50.4737342,9.59480872 50.0949024,8.9139576 50.3399863,8.44742845 C50.5850702,7.98126012 51.3615306,7.90548972 52.0743705,8.27892953 C52.7872103,8.65200852 53.1664035,9.33285964 52.9213196,9.79902798" id="Fill-11" fill="#BCB199" transform="translate(51.630635, 9.123262) rotate(-6.000000) translate(-51.630635, -9.123262) "/>
                                <polygon id="Fill-13" fill="#E8E0CB" points="51.2629058 9.16751017 53.8700392 0.079217773 54.4382989 0.242094392 51.8311654 9.33038679"/>
                            </g>
                            <g id="Group-31" transform="translate(31.914126, 26.487367)" fill="#ED8370">
                                <path d="M12.4794578,4.41978147 C12.4794578,4.41978147 14.284664,0.448350408 21.4508097,1.55623984 C21.4508097,1.55623984 17.1942269,-1.48537679 12.2160406,1.78809589" id="Fill-21"/>
                                <path d="M2.21584487,10.2549845 C2.21584487,10.2549845 -0.103424011,14.179407 4.01985371,19.1125227 L2.90352346,19.776619 C2.90352346,19.776619 -0.935183837,16.6967581 0.489264733,10.0538036" id="Fill-23"/>
                            </g>
                            <g id="Group-48" transform="translate(57.073731, 11.189106)">
                                <mask id="mask-18" fill="white">
                                    <use xlink:href="#path-17"/>
                                </mask>
                                <g id="Clip-47"/>
                                <g id="Group-2" mask="url(#mask-18)">
                                    <mask id="mask-20" fill="white">
                                        <use xlink:href="#path-19"/>
                                    </mask>
                                    <use id="Fill-46" fill="#A6B4B9" xlink:href="#path-19"/>
                                    <polygon id="Fill-15" fill-opacity="0.25" fill="#FEFEFE" mask="url(#mask-20)" points="-1.72473831 13.1553678 -2.61232135 11.9735386 12.7249184 0.975987715 13.6125015 2.15781693"/>
                                    <polygon id="Fill-18" fill-opacity="0.25" fill="#FEFEFE" mask="url(#mask-20)" points="-4.10642453 11.1876617 -4.99400756 10.0058325 10.3430371 -0.991718415 11.2304251 0.190110798"/>
                                </g>
                            </g>
                            <g id="Group-55" transform="translate(52.284327, 0.206525)" fill="#F99D78">
                                <path d="M2.98675215,3.23257373 C2.2435963,3.86400299 1.12806429,3.77436792 0.495463843,3.03298631 C-0.137136601,2.29080795 -0.0477343931,1.17734122 0.69542146,0.545911969 C1.43897643,-0.085517285 2.55450844,0.00411778263 3.18670977,0.745897765 C3.81970933,1.48767775 3.72990801,2.60114448 2.98675215,3.23257373" id="Fill-49"/>
                            </g>
                            <g id="backpack" transform="translate(35.305007, 28.401084) rotate(10.000000) translate(-35.305007, -28.401084) translate(23.481803, 16.878356)">
                                <mask id="mask-22" fill="white">
                                    <use xlink:href="#path-21"/>
                                </mask>
                                <use id="Mask" fill="#F99D78" xlink:href="#path-21"/>
                                <rect id="Rectangle-2" fill="#D27051" mask="url(#mask-22)" transform="translate(16.185367, 15.295537) rotate(44.000000) translate(-16.185367, -15.295537) " x="14.5717497" y="7.00432339" width="3.2272344" height="16.5824278" rx="1.6136172"/>
                                <g id="backpack-window" mask="url(#mask-22)">
                                    <g transform="translate(3.340345, 2.977907)" id="Group">
                                        <g opacity="0.18">
                                            <ellipse id="Oval" fill="#000000" transform="translate(6.633256, 6.777790) rotate(-42.572395) translate(-6.633256, -6.777790) " cx="6.63325555" cy="6.77779024" rx="5.18615564" ry="4.08582528"/>
                                        </g>
                                        <g transform="translate(1.638578, 1.566713)">
                                            <mask id="mask-24" fill="white">
                                                <use xlink:href="#path-23"/>
                                            </mask>
                                            <use id="Mask" fill="#DBD4C6" transform="translate(4.996442, 5.211444) rotate(-42.572395) translate(-4.996442, -5.211444) " xlink:href="#path-23"/>
                                            <g opacity="0.5" mask="url(#mask-24)" id="Shape" fill="#FFFFFF">
                                                <g transform="translate(2.639335, 1.052488)">
                                                    <polygon points="2.08522083 7.96237103 1.49708162 7.90998701 3.84963845 0.36668814 4.43777766 0.41907216"/>
                                                    <polygon points="0.908942412 7.85760299 0.320803204 7.80521898 2.67336003 0.31430412 3.26149924 0.31430412"/>
                                                </g>
                                            </g>
                                        </g>
                                    </g>
                                </g>
                            </g>
                        </g>
                    </g>
                </g>
                <path d="M410.335077,366.422936 C437.39703,366.422936 459.335077,344.484889 459.335077,317.422936 C459.335077,290.360984 437.39703,268.422936 410.335077,268.422936" id="Oval" stroke="#FFFFFF" stroke-width="2" stroke-linecap="round" stroke-linejoin="round" stroke-dasharray="5,10" transform="translate(434.835077, 317.422936) rotate(40.000000) translate(-434.835077, -317.422936) "/>
            </g>
        </g>
    </g>
</svg>