<svg xmlns="http://www.w3.org/2000/svg" xmlns:xlink="http://www.w3.org/1999/xlink" width="466" height="250" viewBox="0 0 466 250">
    <defs>
        <path id="a" d="M0 229V0h193v229H0z"/>
        <path id="d" d="M123.934 56H6.066C2.73 56 0 53.3 0 50.002V6C0 2.7 2.73 0 6.066 0h117.868C127.27 0 130 2.7 130 6v44.002C130 53.3 127.27 56 123.934 56"/>
        <filter id="c" width="102.3%" height="110.7%" x="-1.2%" y="-2.7%" filterUnits="objectBoundingBox">
            <feOffset dy="3" in="SourceAlpha" result="shadowOffsetOuter1"/>
            <feColorMatrix in="shadowOffsetOuter1" values="0 0 0 0 0.839215686 0 0 0 0 0.443137255 0 0 0 0 0.309803922 0 0 0 1 0"/>
        </filter>
        <path id="e" d="M100.56 45.475L30.506 87.282a6.81 6.81 0 0 1-9.349-2.245l-5.13-8.32a6.863 6.863 0 0 1 1.326-8.767l31.562-25.107-36.809 6.546a6.817 6.817 0 0 1-7.86-4.047L.52 36.3c-1.433-3.476.198-7.46 3.652-8.924L89.526.552s19.671 6.162 19.596 6.797c-.074.636-8.562 38.126-8.562 38.126"/>
        <path id="g" d="M8.468 28.5l27.724-7.596a4.313 4.313 0 0 0 2.883-1.483 5.586 5.586 0 0 0 3.624.938l5.032-.45a5.58 5.58 0 0 0 3.987-2.249 5.306 5.306 0 0 0 4.198 1.517l3.943-.353c2.908-.26 5.07-2.852 4.806-5.762l-.71-7.792C63.687 2.36 61.091.192 58.182.452l-3.942.353a5.287 5.287 0 0 0-3.855 2.236 5.604 5.604 0 0 0-4.33-1.505l-5.03.45c-1.281.115-2.42.66-3.298 1.476a4.337 4.337 0 0 0-3.22-1.045L7.577.05S1.051 3.426.97 16.331c-.08 12.906 7.499 12.17 7.499 12.17z"/>
        <path id="i" d="M3.107.462A23.043 23.043 0 0 1 8.51 18.17 23.018 23.018 0 0 1 .013 33.52V.462h3.094z"/>
        <path id="k" d="M16.499 18.703C15.387 28.24 10.852 35.544 6.367 35.02 1.883 34.497-.85 26.342.261 16.807 1.37 7.27 5.907-.035 10.39.489c4.485.524 7.22 8.678 6.108 18.214"/>
        <path id="m" d="M2.822 32.786c-3.105-2.934-3.224-7.863-.239-10.915L21.691 2.39c2.986-3.052 8.002-3.17 11.107-.235L49.16 17.647c3.105 2.934 3.224 7.863.238 10.914L30.29 48.043c-3.105 3.051-8.001 3.169-11.107.235L2.822 32.786z"/>
        <ellipse id="o" cx="11.16" cy="11.676" rx="8.598" ry="6.689"/>
    </defs>
    <g fill="none" fill-rule="evenodd">
        <path fill="#7D728E" d="M338.725 246H35.275C15.793 246 0 230.208 0 210.725V52.276C0 32.794 15.793 17 35.275 17h303.45C358.208 17 374 32.794 374 52.276v158.449C374 230.208 358.208 246 338.725 246"/>
        <path fill="#494756" d="M27 210.064V51.936C27 47.554 30.561 44 34.955 44h303.091c4.393 0 7.954 3.554 7.954 7.936v158.128c0 4.382-3.562 7.936-7.955 7.936H34.955c-4.394 0-7.955-3.554-7.955-7.936"/>
        <path fill="#D78277" d="M43 18h286V0H43z"/>
        <path fill="#7D728E" d="M59 9a4 4 0 1 1-8 0 4 4 0 0 1 8 0M74 9a4 4 0 1 1-8 0 4 4 0 0 1 8 0M89 9a4 4 0 1 1-8 0 4 4 0 0 1 8 0M104 9a4 4 0 1 1-8 0 4 4 0 0 1 8 0"/>
        <path fill="#E8E0CB" d="M114 11h50V6h-50z"/>
        <path fill="#000" d="M181 18h14V0h-14zM208 18h14V0h-14zM235 18h14V0h-14zM261 18h14V0h-14zM288 18h14V0h-14zM315 18h14V0h-14z" opacity=".12"/>
        <g>
            <path fill="#7E788E" d="M50.254 116.075c-.23 1.153-.968 3.588-3.196 4.636-.08.038-.077.15.007.176.658.203 2.381 1.012 3.277 4.043.029.098.166.092.184-.009.179-1.01.867-3.386 3.402-4.016.093-.022.097-.154.007-.184-.87-.285-2.927-1.302-3.497-4.64-.018-.104-.163-.11-.184-.006"/>
            <path fill="#8EA6AD" d="M82.254 162.075c-.23 1.153-.968 3.588-3.196 4.636-.08.037-.077.15.007.176.658.203 2.381 1.012 3.277 4.044.029.096.166.09.184-.01.179-1.01.867-3.386 3.402-4.016.093-.022.097-.154.007-.185-.87-.284-2.927-1.301-3.497-4.638-.018-.105-.163-.11-.184-.007M135.254 70.076c-.23 1.153-.968 3.588-3.196 4.636-.08.038-.077.151.007.175.658.204 2.381 1.013 3.277 4.044.029.096.167.09.184-.01.179-1.01.867-3.385 3.402-4.016.093-.021.097-.153.007-.183-.87-.286-2.927-1.303-3.497-4.64-.018-.105-.163-.111-.184-.006"/>
            <path fill="#F99D78" d="M155.254 114.075c-.228 1.154-.968 3.589-3.196 4.636-.08.037-.077.15.007.176.658.204 2.381 1.013 3.277 4.044.029.096.167.09.184-.01.179-1.01.867-3.385 3.402-4.016.093-.022.097-.152.007-.183-.87-.286-2.927-1.303-3.497-4.64-.018-.105-.162-.11-.184-.007"/>
            <g transform="translate(181 17)">
                <mask id="b" fill="#fff">
                    <use xlink:href="#a"/>
                </mask>
                <path fill="#000" d="M157.725 229h-303.45C-165.207 229-181 213.208-181 193.725V35.276C-181 15.794-165.207 0-145.725 0h303.45C177.208 0 193 15.794 193 35.276v158.449C193 213.208 177.208 229 157.725 229" mask="url(#b)" opacity=".12"/>
            </g>
        </g>
        <g>
            <path fill="#8EA6AD" d="M27 219h319v-32H27z"/>
            <path fill="#7D728E" d="M37 208h14v-11H37zM57 208h14v-11H57zM76 208h14v-11H76z"/>
            <path fill="#595668" d="M137.725 209h-31.45c-2.9 0-5.275-2.475-5.275-5.5 0-3.024 2.374-5.5 5.275-5.5h31.45c2.9 0 5.275 2.476 5.275 5.5 0 3.025-2.374 5.5-5.275 5.5"/>
            <path fill="#7D728E" d="M334 204a7 7 0 0 1-7 7 7 7 0 0 1-7-7 7 7 0 0 1 7-7 7 7 0 0 1 7 7"/>
            <path fill="#595668" d="M315 204a7 7 0 1 1-14 0 7 7 0 0 1 14 0"/>
        </g>
        <g>
            <g transform="translate(197 87)">
                <use fill="#000" filter="url(#c)" xlink:href="#d"/>
                <use fill="#F4815B" xlink:href="#d"/>
            </g>
            <path fill="#FFF" d="M267.219 116.363h1.62c1.088 0 1.876-.202 2.364-.605.488-.404.733-1.003.733-1.797 0-.807-.264-1.387-.791-1.738-.528-.352-1.322-.528-2.383-.528h-1.543v4.668zm0 1.934V124h-2.334v-14.277h4.033c1.842 0 3.206.345 4.092 1.035.885.69 1.328 1.732 1.328 3.125 0 1.777-.925 3.043-2.774 3.799l4.034 6.318h-2.657l-3.418-5.703h-2.304zm21.64-8.574v9.238c0 1.055-.226 1.977-.678 2.768-.453.792-1.107 1.4-1.963 1.827-.856.426-1.88.64-3.072.64-1.77 0-3.147-.47-4.13-1.407-.983-.937-1.475-2.226-1.475-3.867v-9.2h2.344v9.034c0 1.178.273 2.047.82 2.607.547.56 1.387.84 2.52.84 2.2 0 3.3-1.155 3.3-3.467v-9.013h2.334zM304.406 124h-2.861l-7.022-11.377h-.078l.05.635c.09 1.21.136 2.318.136 3.32V124h-2.12v-14.277h2.833l7.002 11.318h.058a66.23 66.23 0 0 1-.078-1.636c-.039-.94-.058-1.675-.058-2.202v-7.48h2.138V124z"/>
            <path stroke="#FFF" d="M253 117c0 9.941-8.058 18-18 18-9.94 0-18-8.059-18-18s8.06-18 18-18c9.942 0 18 8.059 18 18"/>
            <path fill="#FFF" d="M229 110.777v13.446a1 1 0 0 0 1.519.855l11.073-6.723a1 1 0 0 0 0-1.71l-11.073-6.723a1 1 0 0 0-1.519.855z"/>
        </g>
        <g>
            <path fill="#F26F40" d="M108 116.544L69.735 138 67 136.456 105.265 115z"/>
            <path fill="#D44E27" d="M106.869 73.57L107 117l-2.869-1.57L104 72zM69 139l-2.87-1.57L66 94l2.87 1.57z"/>
            <path fill="#F4815B" d="M68.735 95L66 93.456 104.265 72 107 73.543z"/>
            <path fill="#F26F40" d="M99.922 86l.078 27.29L76.078 127 76 99.711z"/>
            <path fill="#D44E27" d="M76 127l-2.917-1.601L73 98l2.917 1.6z"/>
            <path fill="#F4815B" d="M75.693 99L73 97.438 96.307 84 99 85.562z"/>
            <path fill="#F26F40" d="M114 120.544L75.735 142 73 140.456 111.265 119z"/>
            <path fill="#D44E27" d="M113.869 77.57L114 121l-2.869-1.57L111 76zM76 142l-2.869-1.57L73 97l2.869 1.57z"/>
            <path fill="#F4815B" d="M75.735 99L73 97.456 111.265 76 114 77.543z"/>
            <path fill="#F26F40" d="M106.922 90l.078 27.288L83.077 131 83 103.71z"/>
            <path fill="#D44E27" d="M83 131l-2.917-1.601L80 102l2.918 1.6z"/>
            <path fill="#F4815B" d="M82.693 103L80 101.437 103.307 88 106 89.563z"/>
            <path fill="#F26F40" d="M121 124.544L82.735 146 80 144.456 118.265 123z"/>
            <path fill="#D44E27" d="M120.869 81.57L121 125l-2.869-1.57L118 80zM83 147l-2.869-1.57L80 102l2.869 1.57z"/>
            <path fill="#F4815B" d="M82.735 103L80 101.456 118.265 80 121 81.543z"/>
            <path fill="#F26F40" d="M113.923 94l.077 27.289L90.077 135 90 107.711z"/>
            <path fill="#D44E27" d="M90 135l-2.917-1.601L87 106l2.918 1.601z"/>
            <path fill="#F4815B" d="M89.693 107L87 105.437 110.307 92 113 93.563z"/>
            <path fill="#F26F40" d="M128 128.544L89.735 150 87 148.456 125.265 127z"/>
            <path fill="#D44E27" d="M127.87 85.57L128 129l-2.87-1.57L125 84zM90 151l-2.869-1.57L87 106l2.869 1.57z"/>
            <path fill="#F4815B" d="M89.735 107L87 105.456 125.265 84 128 85.543z"/>
            <path fill="#F26F40" d="M120.922 98l.078 27.29L97.078 139 97 111.711z"/>
            <path fill="#D44E27" d="M97 139l-2.917-1.601L94 110l2.917 1.601z"/>
            <path fill="#F4815B" d="M96.693 111L94 109.437 117.307 96 120 97.563z"/>
            <path fill="#F26F40" d="M135 132.544L96.735 154 94 152.457 132.265 131z"/>
            <path fill="#D44E27" d="M134.869 89.57L135 133l-2.869-1.57L132 88zM97 155l-2.87-1.57L94 110l2.87 1.57z"/>
            <path fill="#F4815B" d="M96.735 111L94 109.456 132.265 88 135 89.543z"/>
            <path fill="#F26F40" d="M127.922 102l.078 27.289L104.078 143 104 115.711z"/>
            <path fill="#D44E27" d="M104 143l-2.917-1.601L101 114l2.917 1.601z"/>
            <path fill="#F4815B" d="M103.693 115L101 113.437 124.307 100l2.693 1.563z"/>
            <path fill="#F26F40" d="M142 136.544L103.734 158 101 156.456 139.265 135z"/>
            <path fill="#D44E27" d="M141.869 93.57L142 137l-2.869-1.57L139 92zM104 159l-2.869-1.57L101 114l2.87 1.57z"/>
            <path fill="#F4815B" d="M103.735 115L101 113.456 139.265 92 142 93.543z"/>
            <path fill="#F26F40" d="M134.923 106l.077 27.29L111.078 147 111 119.711z"/>
            <path fill="#D44E27" d="M112 147l-2.917-1.601L109 118l2.917 1.6z"/>
            <path fill="#F4815B" d="M111.692 119L109 117.438 132.308 104l2.692 1.562z"/>
            <path fill="#D44E27" d="M94 153l-.137-43.567L90 107l.114 43.546zM101 157l-.137-43.567L97 111l.114 43.547zM87 149l-.137-43.568L83 103l.113 43.547zM80 145l-.137-43.567L76 99l.114 43.547zM73 141l-.17-43.714L69 95l.096 43.543z"/>
            <path fill="#F9AC86" d="M69 94.734L106.85 73l4.15 2.267L73.15 97zM76 98.578L113.805 77 118 79.44 80.221 101zM83 102.605L120.803 81 125 83.395 87.189 105zM90 106.615L127.779 85 132 87.402 94.2 109zM97 110.565L134.78 89l4.22 2.42L101.245 113z"/>
        </g>
        <g>
            <g transform="scale(-1 1) rotate(-16 373.44 1773.477)">
                <mask id="f" fill="#fff">
                    <use xlink:href="#e"/>
                </mask>
                <use fill="#E8E0CB" xlink:href="#e"/>
                <path fill="#BCB199" d="M48.996 83.05l-2.063 1L14.85 17.7l2.064-1 32.082 66.35zm13.398-4.99l-2.064 1-32.083-66.35 2.064-1 32.083 66.35zm12.546-8.21l-2.064.999-32.083-66.35 2.064-1 32.083 66.35z" mask="url(#f)"/>
            </g>
            <path fill="#E8E0CB" d="M343.579 134.382c-2.072 12.58 6.435 24.454 19.002 26.52 12.566 2.067 24.434-6.457 26.505-19.036 2.073-12.581-6.435-24.454-19.002-26.52-12.566-2.067-24.433 6.457-26.505 19.036"/>
            <g transform="scale(-1 1) rotate(-16 391.934 1442.073)">
                <mask id="h" fill="#fff">
                    <use xlink:href="#g"/>
                </mask>
                <use fill="#E8E0CB" xlink:href="#g"/>
                <path fill="#BCB199" d="M52.336 19.952l-1.844.092L49.493.197 51.34.105l.997 19.847zm-12.498 1.621l-1.847.077-.822-19.855 1.846-.077.823 19.855z" mask="url(#h)"/>
            </g>
            <path fill="#BCB199" d="M365.42 122.221c.116 1.173 1.66 1.98 3.45 1.802 1.79-.178 3.146-1.275 3.03-2.45-.116-1.173-1.66-1.98-3.45-1.8-1.79.178-3.146 1.275-3.03 2.448"/>
            <path fill="#E8E0CB" d="M369.423 122.219l.014-21.178-1.32.001-.015 21.178z"/>
            <g fill="#ED8370">
                <path d="M371.817 169.533s-1.423-9.664-17.494-11.69c0 0 11.018-3.93 19.685 6.185M390.251 188.42s2.556 9.879-9.343 17.964l1.987 2.118s10.144-4.27 11.187-19.453"/>
            </g>
            <g transform="scale(-1 1) rotate(-16 245.912 1328.9)">
                <mask id="j" fill="#fff">
                    <use xlink:href="#i"/>
                </mask>
                <g mask="url(#j)">
                    <mask id="l" fill="#fff">
                        <use xlink:href="#k"/>
                    </mask>
                    <use fill="#A6B4B9" xlink:href="#k"/>
                    <path fill="#FEFEFE" fill-opacity=".25" d="M-3.852 29.473l-1.983-2.648L28.423 2.187l1.982 2.647zM-9.172 25.065l-1.983-2.648L23.103-2.222 25.085.426z" mask="url(#l)"/>
                </g>
            </g>
            <g fill="#F99D78">
                <path d="M365.424 103.681a3.945 3.945 0 0 0 5.473 1.104 3.956 3.956 0 0 0 1.106-5.479 3.945 3.945 0 0 0-5.472-1.103 3.955 3.955 0 0 0-1.107 5.478"/>
            </g>
            <g transform="scale(-1 1) rotate(-6 1189.812 4098.019)">
                <mask id="n" fill="#fff">
                    <use xlink:href="#m"/>
                </mask>
                <use fill="#F99D78" xlink:href="#m"/>
                <rect width="7.208" height="37.151" x="32.548" y="15.692" fill="#D27051" mask="url(#n)" rx="3.604" transform="rotate(44 36.152 34.268)"/>
                <g mask="url(#n)">
                    <ellipse cx="14.816" cy="15.185" fill="#000" opacity=".18" rx="11.584" ry="9.154" transform="rotate(-42.572 27.109 8.945)"/>
                    <g transform="translate(11.121 10.182)">
                        <mask id="p" fill="#fff">
                            <use xlink:href="#o"/>
                        </mask>
                        <use fill="#DBD4C6" transform="rotate(-42.572 11.16 11.676)" xlink:href="#o"/>
                        <g fill="#FFF" mask="url(#p)" opacity=".5">
                            <path d="M10.553 20.197l-1.314-.118 5.255-16.9 1.314.118zM7.926 19.962l-1.314-.117 5.255-16.783h1.313z"/>
                        </g>
                    </g>
                </g>
            </g>
        </g>
    </g>
</svg>